<?xml version="1.0" encoding="utf-8"?>
<!-- Generator: Adobe Illustrator 16.0.0, SVG Export Plug-In . SVG Version: 6.00 Build 0)  -->
<!DOCTYPE svg PUBLIC "-//W3C//DTD SVG 1.1 Basic//EN" "http://www.w3.org/Graphics/SVG/1.1/DTD/svg11-basic.dtd">
<svg version="1.1" baseProfile="basic" id="Layer_1"
	 xmlns="http://www.w3.org/2000/svg" xmlns:xlink="http://www.w3.org/1999/xlink" x="0px" y="0px" width="60px" height="30px"
	 viewBox="0 0 60 30" xml:space="preserve">
<g>
	<g>
		<g>
			<path fill="#FFFFFF" d="M14.933,21.424c2.352,0,4.412-1.27,5.531-3.16l1.451,0.781c-1.4,2.404-4.006,4.025-6.982,4.025
				c-2.104,0-4.02-0.809-5.457-2.131l-1.941,1.502v-4.141v-0.416h1.883h2.631l-1.664,1.662C11.8,20.807,13.292,21.424,14.933,21.424
				z"/>
			<path fill="#FFFFFF" d="M15.054,8.574c-2.551-0.045-4.785,1.41-5.859,3.551l-1.449-0.783c1.359-2.662,4.152-4.467,7.336-4.41
				c2.102,0.035,4.004,0.877,5.42,2.223l1.965-1.467l-0.072,4.139l-0.006,0.418l-1.883-0.033l-2.631-0.047l1.693-1.635
				C18.175,9.248,16.692,8.603,15.054,8.574z"/>
		</g>
	</g>
</g>
<g>
	<g>
		<g>
			<path fill="#293B44" d="M44.933,21.424c2.352,0,4.412-1.27,5.531-3.16l1.451,0.781c-1.4,2.404-4.006,4.025-6.982,4.025
				c-2.104,0-4.02-0.809-5.457-2.131l-1.941,1.502v-4.141v-0.416h1.883h2.631l-1.664,1.662C41.8,20.807,43.292,21.424,44.933,21.424
				z"/>
			<path fill="#293B44" d="M45.054,8.574c-2.551-0.045-4.785,1.41-5.859,3.551l-1.449-0.783c1.359-2.662,4.152-4.467,7.336-4.41
				c2.102,0.035,4.004,0.877,5.42,2.223l1.965-1.467l-0.072,4.139l-0.006,0.418l-1.883-0.033l-2.631-0.047l1.693-1.635
				C48.175,9.248,46.692,8.603,45.054,8.574z"/>
		</g>
	</g>
</g>
</svg>
